<mxfile host="65bd71144e" agent="Mozilla/5.0 (Windows NT 10.0; Win64; x64) AppleWebKit/537.36 (KHTML, like Gecko) Code/1.97.2 Chrome/128.0.6613.186 Electron/32.2.7 Safari/537.36" version="26.0.16" pages="3">
    <diagram id="wDowNqcm65iwoViBAnEi" name="Page-1">
        <mxGraphModel dx="1770" dy="1006" grid="1" gridSize="10" guides="1" tooltips="1" connect="1" arrows="1" fold="1" page="1" pageScale="1" pageWidth="1169" pageHeight="827" math="0" shadow="0" adaptiveColors="auto">
            <root>
                <mxCell id="0"/>
                <mxCell id="1" parent="0"/>
                <mxCell id="18" style="edgeStyle=none;html=1;entryX=1;entryY=0.5;entryDx=0;entryDy=0;" parent="1" source="3" target="6" edge="1">
                    <mxGeometry relative="1" as="geometry"/>
                </mxCell>
                <mxCell id="3" value="event" style="shape=process;whiteSpace=wrap;html=1;backgroundOutline=1;" parent="1" vertex="1">
                    <mxGeometry x="710" y="410" width="120" height="60" as="geometry"/>
                </mxCell>
                <mxCell id="10" style="edgeStyle=none;html=1;" parent="1" source="4" target="11" edge="1">
                    <mxGeometry relative="1" as="geometry"/>
                </mxCell>
                <mxCell id="4" value="command" style="shape=parallelogram;perimeter=parallelogramPerimeter;whiteSpace=wrap;html=1;fixedSize=1;fillColor=#dae8fc;strokeColor=#6c8ebf;" parent="1" vertex="1">
                    <mxGeometry x="310" y="420" width="120" height="60" as="geometry"/>
                </mxCell>
                <mxCell id="16" style="edgeStyle=none;html=1;entryX=0;entryY=0.75;entryDx=0;entryDy=0;" parent="1" source="5" target="3" edge="1">
                    <mxGeometry relative="1" as="geometry"/>
                </mxCell>
                <mxCell id="5" value="system" style="ellipse;shape=cloud;whiteSpace=wrap;html=1;" parent="1" vertex="1">
                    <mxGeometry x="460" y="470" width="120" height="80" as="geometry"/>
                </mxCell>
                <mxCell id="19" style="edgeStyle=none;html=1;" parent="1" source="6" target="7" edge="1">
                    <mxGeometry relative="1" as="geometry"/>
                </mxCell>
                <mxCell id="6" value="&lt;div&gt;&lt;span style=&quot;background-color: transparent; color: light-dark(rgb(0, 0, 0), rgb(255, 255, 255));&quot;&gt;read&lt;/span&gt;&lt;br&gt;&lt;/div&gt;&lt;div&gt;model&lt;/div&gt;" style="ellipse;shape=umlEntity;whiteSpace=wrap;html=1;fillColor=#d5e8d4;strokeColor=#82b366;" parent="1" vertex="1">
                    <mxGeometry x="330" y="590" width="80" height="80" as="geometry"/>
                </mxCell>
                <mxCell id="9" style="edgeStyle=none;html=1;" parent="1" source="7" target="4" edge="1">
                    <mxGeometry relative="1" as="geometry">
                        <Array as="points"/>
                    </mxGeometry>
                </mxCell>
                <mxCell id="7" value="Actor" style="shape=umlActor;verticalLabelPosition=bottom;verticalAlign=top;html=1;outlineConnect=0;" parent="1" vertex="1">
                    <mxGeometry x="210" y="520" width="30" height="60" as="geometry"/>
                </mxCell>
                <mxCell id="12" style="edgeStyle=none;html=1;entryX=0;entryY=0.5;entryDx=0;entryDy=0;" parent="1" source="11" target="3" edge="1">
                    <mxGeometry relative="1" as="geometry"/>
                </mxCell>
                <mxCell id="11" value="aggregate" style="shape=umlBoundary;whiteSpace=wrap;html=1;" parent="1" vertex="1">
                    <mxGeometry x="470" y="340" width="100" height="80" as="geometry"/>
                </mxCell>
                <mxCell id="17" style="edgeStyle=none;html=1;entryX=0.07;entryY=0.4;entryDx=0;entryDy=0;entryPerimeter=0;" parent="1" source="4" target="5" edge="1">
                    <mxGeometry relative="1" as="geometry">
                        <Array as="points"/>
                    </mxGeometry>
                </mxCell>
                <mxCell id="20" value="polisy" style="ellipse;shape=umlControl;whiteSpace=wrap;html=1;" parent="1" vertex="1">
                    <mxGeometry x="610" y="210" width="70" height="80" as="geometry"/>
                </mxCell>
                <mxCell id="21" style="edgeStyle=none;html=1;entryX=1.012;entryY=0.64;entryDx=0;entryDy=0;entryPerimeter=0;" parent="1" source="3" target="20" edge="1">
                    <mxGeometry relative="1" as="geometry">
                        <Array as="points">
                            <mxPoint x="720" y="330"/>
                        </Array>
                    </mxGeometry>
                </mxCell>
                <mxCell id="22" style="edgeStyle=none;html=1;entryX=0.648;entryY=0.02;entryDx=0;entryDy=0;entryPerimeter=0;" parent="1" source="20" target="11" edge="1">
                    <mxGeometry relative="1" as="geometry"/>
                </mxCell>
            </root>
        </mxGraphModel>
    </diagram>
    <diagram id="Xj-kDBQLqhSW7U-ttDHA" name="Page-2">
        <mxGraphModel dx="2442" dy="1006" grid="1" gridSize="10" guides="1" tooltips="1" connect="1" arrows="1" fold="1" page="1" pageScale="1" pageWidth="1169" pageHeight="827" math="0" shadow="0">
            <root>
                <mxCell id="0"/>
                <mxCell id="1" parent="0"/>
                <mxCell id="K8MuZRs04MM01r0A2ItK-3" style="edgeStyle=none;html=1;exitX=1;exitY=0.5;exitDx=0;exitDy=0;" parent="1" edge="1">
                    <mxGeometry relative="1" as="geometry">
                        <mxPoint x="200" y="230" as="sourcePoint"/>
                    </mxGeometry>
                </mxCell>
                <mxCell id="K8MuZRs04MM01r0A2ItK-4" value="返却期限 &amp;gt;&amp;nbsp;&lt;span style=&quot;background-color: light-dark(#ffffff, var(--ge-dark-color, #121212)); color: light-dark(rgb(0, 0, 0), rgb(255, 255, 255));&quot;&gt;本日&lt;/span&gt;" style="edgeLabel;html=1;align=center;verticalAlign=middle;resizable=0;points=[];" parent="K8MuZRs04MM01r0A2ItK-3" vertex="1" connectable="0">
                    <mxGeometry x="-0.0173" y="3" relative="1" as="geometry">
                        <mxPoint y="-7" as="offset"/>
                    </mxGeometry>
                </mxCell>
                <mxCell id="faxkkwgaERTg1Sqf5nPu-3" style="edgeStyle=none;html=1;entryX=0;entryY=0.5;entryDx=0;entryDy=0;" parent="1" edge="1">
                    <mxGeometry relative="1" as="geometry">
                        <mxPoint x="204.375" y="216.875" as="sourcePoint"/>
                    </mxGeometry>
                </mxCell>
                <mxCell id="faxkkwgaERTg1Sqf5nPu-5" value="返却期限 &amp;lt;= 本日" style="edgeLabel;html=1;align=center;verticalAlign=middle;resizable=0;points=[];" parent="faxkkwgaERTg1Sqf5nPu-3" vertex="1" connectable="0">
                    <mxGeometry x="-0.0285" y="4" relative="1" as="geometry">
                        <mxPoint as="offset"/>
                    </mxGeometry>
                </mxCell>
                <mxCell id="faxkkwgaERTg1Sqf5nPu-7" style="edgeStyle=none;html=1;" parent="1" edge="1">
                    <mxGeometry relative="1" as="geometry">
                        <mxPoint x="630" y="160" as="targetPoint"/>
                    </mxGeometry>
                </mxCell>
                <mxCell id="BpJKpnjyPgfgVKMjiqSl-4" style="edgeStyle=none;html=1;entryX=0;entryY=0.5;entryDx=0;entryDy=0;" parent="1" edge="1">
                    <mxGeometry relative="1" as="geometry">
                        <mxPoint x="440" y="430" as="targetPoint"/>
                    </mxGeometry>
                </mxCell>
                <mxCell id="BpJKpnjyPgfgVKMjiqSl-2" style="edgeStyle=none;html=1;" parent="1" edge="1">
                    <mxGeometry relative="1" as="geometry">
                        <mxPoint x="240" y="430" as="targetPoint"/>
                    </mxGeometry>
                </mxCell>
                <mxCell id="bMnkEsjF7QexnOxUBElX-5" value="商品検索" style="swimlane;whiteSpace=wrap;html=1;" parent="1" vertex="1">
                    <mxGeometry x="40" y="60" width="580" height="250" as="geometry">
                        <mxRectangle x="390" y="80" width="90" height="30" as="alternateBounds"/>
                    </mxGeometry>
                </mxCell>
                <mxCell id="EY6ssMgAKHse3ECtvzzm-1" value="商品一覧" style="rounded=0;whiteSpace=wrap;html=1;fillColor=#ffe6cc;strokeColor=#d79b00;" parent="bMnkEsjF7QexnOxUBElX-5" vertex="1">
                    <mxGeometry x="360" y="100" width="120" height="60" as="geometry"/>
                </mxCell>
                <mxCell id="EY6ssMgAKHse3ECtvzzm-3" value="検索条件" style="rounded=0;whiteSpace=wrap;html=1;fillColor=#dae8fc;strokeColor=#6c8ebf;" parent="bMnkEsjF7QexnOxUBElX-5" vertex="1">
                    <mxGeometry x="40" y="100" width="120" height="60" as="geometry"/>
                </mxCell>
                <mxCell id="EY6ssMgAKHse3ECtvzzm-2" value="商品検索" style="rounded=0;whiteSpace=wrap;html=1;fillColor=#fff2cc;strokeColor=#d6b656;" parent="bMnkEsjF7QexnOxUBElX-5" vertex="1">
                    <mxGeometry x="200" y="100" width="120" height="60" as="geometry"/>
                </mxCell>
                <mxCell id="bMnkEsjF7QexnOxUBElX-6" value="商品詳細を確認する" style="swimlane;whiteSpace=wrap;html=1;" parent="1" vertex="1">
                    <mxGeometry x="40" y="400" width="580" height="250" as="geometry"/>
                </mxCell>
                <mxCell id="4LciLZGCv7o4a0WirXzR-1" value="商品詳細" style="rounded=0;whiteSpace=wrap;html=1;fillColor=#ffe6cc;strokeColor=#d79b00;" vertex="1" parent="bMnkEsjF7QexnOxUBElX-6">
                    <mxGeometry x="360" y="95" width="120" height="60" as="geometry"/>
                </mxCell>
                <mxCell id="4LciLZGCv7o4a0WirXzR-2" value="選択した&lt;span style=&quot;background-color: transparent; color: light-dark(rgb(0, 0, 0), rgb(255, 255, 255));&quot;&gt;商品&lt;/span&gt;" style="rounded=0;whiteSpace=wrap;html=1;fillColor=#dae8fc;strokeColor=#6c8ebf;" vertex="1" parent="bMnkEsjF7QexnOxUBElX-6">
                    <mxGeometry x="40" y="95" width="120" height="60" as="geometry"/>
                </mxCell>
                <mxCell id="4LciLZGCv7o4a0WirXzR-3" value="商品検索" style="rounded=0;whiteSpace=wrap;html=1;fillColor=#fff2cc;strokeColor=#d6b656;" vertex="1" parent="bMnkEsjF7QexnOxUBElX-6">
                    <mxGeometry x="200" y="95" width="120" height="60" as="geometry"/>
                </mxCell>
                <mxCell id="jwYBDgCQ_3tGHWB-y2Ue-3" value="カートに商品を追加する" style="swimlane;whiteSpace=wrap;html=1;" parent="1" vertex="1">
                    <mxGeometry x="40" y="720" width="580" height="240" as="geometry"/>
                </mxCell>
                <mxCell id="jwYBDgCQ_3tGHWB-y2Ue-4" value="カートに商品を&lt;div&gt;追加する&lt;/div&gt;" style="rounded=0;whiteSpace=wrap;html=1;fillColor=#fff2cc;strokeColor=#d6b656;" parent="jwYBDgCQ_3tGHWB-y2Ue-3" vertex="1">
                    <mxGeometry x="200" y="90" width="120" height="60" as="geometry"/>
                </mxCell>
                <mxCell id="jwYBDgCQ_3tGHWB-y2Ue-6" value="商品を選択する" style="rounded=0;whiteSpace=wrap;html=1;fillColor=#dae8fc;strokeColor=#6c8ebf;" parent="jwYBDgCQ_3tGHWB-y2Ue-3" vertex="1">
                    <mxGeometry x="40" y="90" width="120" height="60" as="geometry"/>
                </mxCell>
                <mxCell id="jwYBDgCQ_3tGHWB-y2Ue-8" value="商品が追加された&lt;div&gt;カート&lt;/div&gt;" style="rounded=0;whiteSpace=wrap;html=1;fillColor=#ffe6cc;strokeColor=#d79b00;" parent="jwYBDgCQ_3tGHWB-y2Ue-3" vertex="1">
                    <mxGeometry x="360" y="90" width="120" height="60" as="geometry"/>
                </mxCell>
                <mxCell id="ZlN3JwtbtuF9cfLLvOav-1" value="購入手続きを行う" style="swimlane;whiteSpace=wrap;html=1;" parent="1" vertex="1">
                    <mxGeometry x="40" y="1040" width="850" height="250" as="geometry"/>
                </mxCell>
                <mxCell id="ZlN3JwtbtuF9cfLLvOav-2" value="カートに商品を&lt;div&gt;追加する&lt;/div&gt;" style="rounded=0;whiteSpace=wrap;html=1;fillColor=#fff2cc;strokeColor=#d6b656;" parent="ZlN3JwtbtuF9cfLLvOav-1" vertex="1">
                    <mxGeometry x="200" y="91" width="120" height="60" as="geometry"/>
                </mxCell>
                <mxCell id="ZlN3JwtbtuF9cfLLvOav-3" value="購入手続きを&lt;div&gt;申請する&lt;/div&gt;" style="rounded=0;whiteSpace=wrap;html=1;fillColor=#dae8fc;strokeColor=#6c8ebf;" parent="ZlN3JwtbtuF9cfLLvOav-1" vertex="1">
                    <mxGeometry x="40" y="91" width="120" height="60" as="geometry"/>
                </mxCell>
                <mxCell id="ZlN3JwtbtuF9cfLLvOav-5" value="申請結果" style="rounded=0;whiteSpace=wrap;html=1;fillColor=#d5e8d4;strokeColor=#82b366;" parent="ZlN3JwtbtuF9cfLLvOav-1" vertex="1">
                    <mxGeometry x="360" y="91" width="120" height="60" as="geometry"/>
                </mxCell>
                <mxCell id="4LciLZGCv7o4a0WirXzR-13" style="edgeStyle=none;html=1;entryX=0;entryY=0.5;entryDx=0;entryDy=0;" edge="1" parent="1" source="4LciLZGCv7o4a0WirXzR-12" target="4LciLZGCv7o4a0WirXzR-2">
                    <mxGeometry relative="1" as="geometry"/>
                </mxCell>
                <mxCell id="4LciLZGCv7o4a0WirXzR-12" value="検索結果" style="rounded=0;whiteSpace=wrap;html=1;fillColor=#fff2cc;strokeColor=#d6b656;" vertex="1" parent="1">
                    <mxGeometry x="-160" y="430" width="120" height="60" as="geometry"/>
                </mxCell>
                <mxCell id="4LciLZGCv7o4a0WirXzR-15" style="edgeStyle=none;html=1;" edge="1" parent="1" source="4LciLZGCv7o4a0WirXzR-14" target="4LciLZGCv7o4a0WirXzR-2">
                    <mxGeometry relative="1" as="geometry"/>
                </mxCell>
                <mxCell id="4LciLZGCv7o4a0WirXzR-14" value="おすすめリンク" style="rounded=0;whiteSpace=wrap;html=1;fillColor=#fff2cc;strokeColor=#d6b656;" vertex="1" parent="1">
                    <mxGeometry x="-160" y="540" width="120" height="60" as="geometry"/>
                </mxCell>
            </root>
        </mxGraphModel>
    </diagram>
    <diagram id="vQLpXRM_8OwJ0inGwlq5" name="Page-3">
        <mxGraphModel dx="1235" dy="1006" grid="1" gridSize="10" guides="1" tooltips="1" connect="1" arrows="1" fold="1" page="1" pageScale="1" pageWidth="1169" pageHeight="827" math="0" shadow="0">
            <root>
                <mxCell id="0"/>
                <mxCell id="1" parent="0"/>
            </root>
        </mxGraphModel>
    </diagram>
</mxfile>